<svg width="288" height="142" viewBox="0 0 288 142" fill="none" xmlns="http://www.w3.org/2000/svg">
<g filter="url(#filter0_d_1105_100)">
<path d="M144.465 5.43708C145.323 6.16001 146.167 6.90103 146.993 7.6599C147.414 8.02577 147.834 8.39163 148.268 8.76859C152.413 12.5983 155.889 17.3382 156.756 23.0017C157.338 22.7662 157.919 22.5307 158.518 22.288C159.303 21.977 160.088 21.6659 160.897 21.3455C161.665 21.0381 162.434 20.7306 163.226 20.4139C176.972 15.6539 192.163 17.2383 205.135 23.4811C212.793 27.4206 218.335 32.7207 222.307 40.4356C222.784 42.0564 222.784 42.0564 223.005 43.225C223.512 43.1243 224.019 43.0236 224.541 42.9199C239.564 40.1465 256.207 42.4019 269.03 51.1138C276.349 56.5306 281.245 62.9718 283.675 71.8166C284.699 81.0169 283.439 89.1622 277.957 96.7933C268.615 108.121 254.713 112.966 240.439 114.355C234.027 114.73 227.93 113.989 221.61 112.96C219.983 112.725 218.356 112.492 216.729 112.263C216.491 112.702 216.254 113.14 216.009 113.592C210.443 123.422 202.421 128.707 191.624 131.745C178.977 134.381 164.649 133.717 153.277 127.087C151.59 125.922 149.98 124.713 148.388 123.421C147.669 122.86 146.949 122.299 146.209 121.721C145.777 121.361 145.346 121.002 144.901 120.631C144.316 121.087 144.316 121.087 143.719 121.552C133.127 129.42 120.312 132.729 107.244 133.184C106.667 133.22 106.09 133.256 105.495 133.293C91.1575 133.819 75.0256 129.67 64.0133 120.239C59.4111 115.757 59.4111 115.757 58.3391 113.105C57.2095 111.437 57.2095 111.437 55.6036 111.325C53.6881 111.297 51.7992 111.374 49.8864 111.479C35.424 111.857 22.2525 108.259 11.4883 98.2044C6.422 92.9239 3.93234 86.8311 4.03529 79.4875C4.84646 71.276 8.52929 65.5532 14.4956 59.9615C25.0456 51.9205 36.4024 49.2808 49.3634 48.8038C49.5216 47.8977 49.6798 46.9916 49.8428 46.058C51.5524 38.5239 56.5028 32.2129 62.7003 27.7089C71.4426 22.2506 82.0839 20.2549 92.2071 22.0265C95.3073 22.7788 98.1516 23.5734 100.968 25.0938C101.212 24.2164 101.457 23.3391 101.709 22.4351C104.478 14.269 110.111 7.34327 117.704 3.17068C126.383 -0.66902 136.656 -0.24064 144.465 5.43708Z" fill="#E2F1FE"/>
<path d="M144.465 5.43708C145.323 6.16001 146.167 6.90103 146.993 7.6599C147.414 8.02577 147.834 8.39163 148.268 8.76859C152.413 12.5983 155.889 17.3382 156.756 23.0017C157.338 22.7662 157.919 22.5307 158.518 22.288C159.303 21.977 160.088 21.6659 160.897 21.3455C161.665 21.0381 162.434 20.7306 163.226 20.4139C176.972 15.6539 192.163 17.2383 205.135 23.4811C212.793 27.4206 218.335 32.7207 222.307 40.4356C222.784 42.0564 222.784 42.0564 223.005 43.225C223.512 43.1243 224.019 43.0236 224.541 42.9199C239.564 40.1465 256.207 42.4019 269.03 51.1138C276.349 56.5306 281.245 62.9718 283.675 71.8166C284.699 81.0169 283.439 89.1622 277.957 96.7933C268.615 108.121 254.713 112.966 240.439 114.355C234.027 114.73 227.93 113.989 221.61 112.96C219.983 112.725 218.356 112.492 216.729 112.263C216.491 112.702 216.254 113.14 216.009 113.592C210.443 123.422 202.421 128.707 191.624 131.745C178.977 134.381 164.649 133.717 153.277 127.087C151.59 125.922 149.98 124.713 148.388 123.421C147.669 122.86 146.949 122.299 146.209 121.721C145.777 121.361 145.346 121.002 144.901 120.631C144.316 121.087 144.316 121.087 143.719 121.552C133.127 129.42 120.312 132.729 107.244 133.184C106.667 133.22 106.09 133.256 105.495 133.293C91.1575 133.819 75.0256 129.67 64.0133 120.239C59.4111 115.757 59.4111 115.757 58.3391 113.105C57.2095 111.437 57.2095 111.437 55.6036 111.325C53.6881 111.297 51.7992 111.374 49.8864 111.479C35.424 111.857 22.2525 108.259 11.4883 98.2044C6.422 92.9239 3.93234 86.8311 4.03529 79.4875C4.84646 71.276 8.52929 65.5532 14.4956 59.9615C25.0456 51.9205 36.4024 49.2808 49.3634 48.8038C49.5216 47.8977 49.6798 46.9916 49.8428 46.058C51.5524 38.5239 56.5028 32.2129 62.7003 27.7089C71.4426 22.2506 82.0839 20.2549 92.2071 22.0265C95.3073 22.7788 98.1516 23.5734 100.968 25.0938C101.212 24.2164 101.457 23.3391 101.709 22.4351C104.478 14.269 110.111 7.34327 117.704 3.17068C126.383 -0.66902 136.656 -0.24064 144.465 5.43708Z" fill="#E2F1FE"/>
<path d="M282.977 71.8165C283.207 71.8165 283.438 71.8165 283.675 71.8165C284.114 82.9128 283.039 91.3835 275.249 99.9041C264.808 110.034 250.258 114.252 235.949 114.529C231.101 114.453 226.388 113.738 221.61 112.96C219.983 112.725 218.356 112.492 216.729 112.263C216.491 112.702 216.254 113.14 216.009 113.592C210.444 123.422 202.421 128.707 191.624 131.745C178.977 134.381 164.649 133.717 153.278 127.087C151.59 125.922 149.98 124.713 148.388 123.421C147.669 122.86 146.95 122.299 146.209 121.721C145.777 121.361 145.346 121.002 144.901 120.631C144.316 121.087 144.316 121.087 143.719 121.552C133.127 129.42 120.312 132.729 107.244 133.184C106.667 133.22 106.09 133.256 105.495 133.293C91.1576 133.819 75.0257 129.67 64.0134 120.239C59.4112 115.757 59.4112 115.757 58.3392 113.105C57.2096 111.437 57.2096 111.437 55.6037 111.325C53.6882 111.296 51.7993 111.374 49.8865 111.479C35.4241 111.857 22.2526 108.259 11.4884 98.2043C6.74503 93.2604 4.48424 87.8952 4 81.0728C4.04721 78.9593 4.57069 77.2243 5.43012 75.3032C6.25318 76.5378 7.05023 77.7917 7.78369 79.0815C13.4767 88.7842 22.6792 93.8527 33.2807 96.8777C42.7225 98.7637 54.2277 98.8994 63.3106 95.5265C64.098 95.2407 64.8855 94.9548 65.6968 94.6603C67.9378 93.8187 70.1588 92.9416 72.3762 92.0398C73.5383 91.5746 74.7006 91.1096 75.863 90.645C72.3703 95.9834 67.7813 100.522 61.9159 103.197C64.4359 109.477 72.8056 112.81 78.715 115.374C85.1405 117.998 91.9309 119.663 98.8757 119.934C99.5598 119.978 100.244 120.022 100.949 120.067C114.701 120.585 125.422 114.19 135.835 105.987C136.763 105.287 137.692 104.588 138.625 103.895C137.828 103.59 137.828 103.59 137.015 103.279C129.83 100.427 124.341 97.0393 119.099 91.3424C119.789 90.9972 119.789 90.9972 120.494 90.645C121.611 91.1136 121.611 91.1136 123.022 91.8654C133.091 96.4686 147.905 97.6769 158.464 94.1236C159.051 93.8962 159.638 93.6688 160.243 93.4345C161.01 93.1567 161.776 92.8789 162.567 92.5927C166.322 91.1975 169.928 89.6888 173.493 87.8556C169.964 95.353 163.105 99.7892 155.588 102.759C153.821 103.237 152.302 103.278 150.48 103.197C156.191 110.632 165.328 118.477 174.887 119.934C186.994 120.978 199.673 117.409 209.058 109.517C211.558 107.14 213.29 104.986 214.637 101.803C214.425 99.0185 212.818 97.639 210.932 95.7009C208.2 92.7557 206.342 90.1993 204.874 86.4609C205.104 86.0007 205.334 85.5404 205.571 85.0662C206.054 85.522 206.054 85.522 206.546 85.9869C217.045 95.5731 230.904 100.451 245.089 99.9477C255.555 99.2893 266.464 95.1559 274.119 87.8338C278.224 83.0884 280.92 77.7064 282.977 71.8165Z" fill="#B7D5F0"/>
<path d="M144.465 5.43708C145.323 6.16001 146.166 6.90103 146.993 7.6599C147.414 8.02577 147.834 8.39163 148.268 8.76859C152.413 12.5983 155.889 17.3382 156.756 23.0017C157.338 22.7662 157.919 22.5307 158.518 22.288C159.303 21.977 160.088 21.6659 160.896 21.3455C161.665 21.0381 162.434 20.7306 163.226 20.4139C176.972 15.6539 192.163 17.2383 205.135 23.4811C212.793 27.4206 218.334 32.7207 222.307 40.4356C222.784 42.0564 222.784 42.0564 223.005 43.225C223.512 43.1243 224.019 43.0236 224.541 42.9199C239.563 40.1465 256.207 42.4019 269.03 51.1138C274.932 55.4822 279.833 60.5602 282.28 67.6324C282.05 68.0927 281.82 68.5529 281.582 69.0271C281.243 68.6388 280.903 68.2505 280.553 67.8503C271.024 57.5939 257.749 52.8517 243.977 52.23C234.021 51.8646 226.577 53.8967 217.426 57.8694C216.265 58.3385 215.103 58.8047 213.939 59.2642C215.663 55.1903 218.729 52.0156 222.307 49.5012C222.768 49.5012 223.228 49.5012 223.702 49.5012C219.277 40.8352 212.605 34.9724 203.349 31.9195C187.816 27.077 172.728 28.0735 158.281 35.4233C157.5 35.8449 156.719 36.2665 155.914 36.7009C153.967 37.6462 153.967 37.6462 151.874 37.6462C152.185 37.2839 152.495 36.9216 152.814 36.5484C153.209 36.062 153.604 35.5757 154.01 35.0747C154.407 34.5973 154.803 34.12 155.211 33.6282C156.213 32.111 156.213 32.111 155.958 30.3512C153.186 22.1257 147.384 16.6955 140.019 12.5414C139.575 12.2861 139.131 12.0308 138.674 11.7678C133.446 9.30505 126.447 9.65289 120.946 11.0377C112.783 14.1593 107.005 19.4065 103.06 27.1858C102.567 28.5709 102.094 29.9638 101.665 31.37C104.081 33.7863 104.081 33.7863 106.546 36.2514C104.548 37.2504 103.295 36.4655 101.267 35.8047C100.766 35.6357 100.264 35.4667 99.7472 35.2926C87.6842 31.2716 73.4286 30.9881 61.7876 36.6301C58.0596 38.8406 55.1624 41.3806 52.4578 44.7614C51.4941 45.9659 50.4727 47.0366 49.3633 48.1065C51.0491 39.6772 55.7232 32.7795 62.7002 27.7089C71.4426 22.2506 82.0838 20.2549 92.207 22.0265C95.3072 22.7787 98.1516 23.5734 100.968 25.0938C101.212 24.2164 101.457 23.3391 101.708 22.4351C104.478 14.269 110.111 7.34327 117.704 3.17068C126.383 -0.66902 136.656 -0.24064 144.465 5.43708Z" fill="#FDFEFF"/>
<path d="M48.6657 49.5011C47.9753 52.4928 47.2849 55.4844 46.5736 58.5667C45.7888 58.635 45.0041 58.7034 44.1955 58.7737C29.3969 60.1655 16.7595 63.7983 6.12703 74.6059C5.42967 72.5138 5.42967 72.5138 6.38854 70.0295C11.7298 60.1127 21.4557 54.4717 31.812 50.9149C37.478 49.2841 42.8189 49.2854 48.6657 49.5011Z" fill="#FDFEFF"/>
<path d="M133.349 59.1524C137.079 62.298 137.079 62.298 137.928 64.843C137.564 64.7162 137.2 64.5895 136.825 64.4589C135.106 63.8719 133.379 63.3107 131.652 62.7509C131.1 62.566 130.549 62.3811 129.98 62.1906C124.553 60.5239 119.392 60.2827 113.738 60.3102C113.278 60.3109 112.818 60.3117 112.343 60.3125C102.772 60.3582 94.9056 61.7972 86.743 67.0603C86.3744 67.2491 86.0059 67.4379 85.6262 67.6324C85.1659 67.4023 84.7056 67.1721 84.2314 66.935C97.3851 51.1096 115.801 45.8864 133.349 59.1524Z" fill="#FDFEFF"/>
</g>
<defs>
<filter id="filter0_d_1105_100" x="0" y="0.662964" width="288" height="140.674" filterUnits="userSpaceOnUse" color-interpolation-filters="sRGB">
<feFlood flood-opacity="0" result="BackgroundImageFix"/>
<feColorMatrix in="SourceAlpha" type="matrix" values="0 0 0 0 0 0 0 0 0 0 0 0 0 0 0 0 0 0 127 0" result="hardAlpha"/>
<feOffset dy="4"/>
<feGaussianBlur stdDeviation="2"/>
<feComposite in2="hardAlpha" operator="out"/>
<feColorMatrix type="matrix" values="0 0 0 0 0.145098 0 0 0 0 0.603922 0 0 0 0 0.670588 0 0 0 0.25 0"/>
<feBlend mode="normal" in2="BackgroundImageFix" result="effect1_dropShadow_1105_100"/>
<feBlend mode="normal" in="SourceGraphic" in2="effect1_dropShadow_1105_100" result="shape"/>
</filter>
</defs>
</svg>
