<svg width="37" height="37" viewBox="0 0 37 37" fill="none" xmlns="http://www.w3.org/2000/svg">
<path d="M20.0844 3.08334C21.8188 3.08797 22.6991 3.09722 23.4591 3.1188L23.7582 3.12959C24.1035 3.14193 24.4442 3.15734 24.8559 3.17584C26.4962 3.25293 27.6154 3.51193 28.5975 3.89272C29.615 4.2843 30.4722 4.81464 31.3293 5.67026C32.1136 6.44068 32.7202 7.37299 33.1069 8.40209C33.4877 9.38413 33.7467 10.5034 33.8237 12.1453C33.8422 12.5553 33.8577 12.8961 33.87 13.2429L33.8792 13.542C33.9024 14.3005 33.9116 15.1808 33.9147 16.9152L33.9162 18.0653V20.0848C33.92 21.2093 33.9082 22.3338 33.8808 23.458L33.8715 23.7571C33.8592 24.104 33.8438 24.4447 33.8253 24.8548C33.7482 26.4966 33.4861 27.6143 33.1069 28.5979C32.7202 29.627 32.1136 30.5593 31.3293 31.3298C30.5589 32.114 29.6266 32.7206 28.5975 33.1073C27.6154 33.4881 26.4962 33.7471 24.8559 33.8242L23.7582 33.8704L23.4591 33.8797C22.6991 33.9013 21.8188 33.9121 20.0844 33.9151L18.9343 33.9167H16.9163C15.7913 33.9206 14.6663 33.9088 13.5416 33.8812L13.2425 33.872C12.8765 33.8581 12.5106 33.8422 12.1448 33.8242C10.5045 33.7471 9.38524 33.4881 8.40166 33.1073C7.3731 32.7204 6.44134 32.1138 5.67137 31.3298C4.88657 30.5595 4.27941 29.6272 3.89228 28.5979C3.51149 27.6159 3.25249 26.4966 3.17541 24.8548L3.12916 23.7571L3.12145 23.458C3.09303 22.3339 3.08018 21.2094 3.08291 20.0848V16.9152C3.07864 15.7907 3.08995 14.6662 3.11682 13.542L3.12762 13.2429C3.13995 12.8961 3.15537 12.5553 3.17387 12.1453C3.25095 10.5034 3.50995 9.38568 3.89074 8.40209C4.27877 7.37257 4.887 6.44022 5.67291 5.67026C6.44244 4.8864 7.37366 4.27979 8.40166 3.89272C9.38524 3.51193 10.5029 3.25293 12.1448 3.17584C12.5549 3.15734 12.8972 3.14193 13.2425 3.12959L13.5416 3.12034C14.6657 3.09295 15.7902 3.08113 16.9147 3.08489L20.0844 3.08334ZM18.4996 10.7917C16.4552 10.7917 14.4946 11.6038 13.049 13.0494C11.6034 14.495 10.7912 16.4556 10.7912 18.5C10.7912 20.5444 11.6034 22.505 13.049 23.9506C14.4946 25.3962 16.4552 26.2083 18.4996 26.2083C20.544 26.2083 22.5046 25.3962 23.9502 23.9506C25.3958 22.505 26.2079 20.5444 26.2079 18.5C26.2079 16.4556 25.3958 14.495 23.9502 13.0494C22.5046 11.6038 20.544 10.7917 18.4996 10.7917ZM18.4996 13.875C19.1069 13.8749 19.7084 13.9944 20.2695 14.2268C20.8307 14.4591 21.3406 14.7997 21.7702 15.2291C22.1997 15.6585 22.5405 16.1683 22.773 16.7294C23.0055 17.2905 23.1252 17.8919 23.1253 18.4992C23.1254 19.1066 23.0059 19.708 22.7736 20.2692C22.5412 20.8304 22.2007 21.3403 21.7713 21.7698C21.3419 22.1994 20.8321 22.5401 20.271 22.7727C19.7099 23.0052 19.1085 23.1249 18.5011 23.125C17.2745 23.125 16.0981 22.6377 15.2307 21.7704C14.3634 20.903 13.8761 19.7266 13.8761 18.5C13.8761 17.2734 14.3634 16.097 15.2307 15.2296C16.0981 14.3623 17.2745 13.875 18.5011 13.875M26.5949 8.47918C26.0838 8.47918 25.5936 8.68221 25.2322 9.04361C24.8708 9.405 24.6678 9.89517 24.6678 10.4063C24.6678 10.9174 24.8708 11.4075 25.2322 11.7689C25.5936 12.1303 26.0838 12.3333 26.5949 12.3333C27.106 12.3333 27.5961 12.1303 27.9575 11.7689C28.3189 11.4075 28.5219 10.9174 28.5219 10.4063C28.5219 9.89517 28.3189 9.405 27.9575 9.04361C27.5961 8.68221 27.106 8.47918 26.5949 8.47918Z" fill="#D1F6EB"/>
</svg>
